# xmcd CD database file
#
# Track frame offsets:
#	182
#	13145
#	27032
#	40937
#	54262
#	67860
#	80537
#	95050
#	109690
#	122392
#	135507
#	146790
#	159245
#	172030
#	184287
#	195852
#	207345
#
# Disc length: 2923 seconds
#
# Revision: 2
# Processed by: cddbd v1.4b41PL1 Copyright (c) Steve Scherf et al.
# Submitted via: Feurio! 1.50.2ß - http://www.feurio.com
#
DISCID=de0b6911
DTITLE=Sarah Vaughan - September Song
DYEAR=1900
DGENRE=
TTITLE0=Love Me Or Leave Me
TTITLE1=The One I Love
TTITLE2=September Song
TTITLE3=A Hundred Yaers From Today
TTITLE4=Time After Time
TTITLE5=Don`t Worry `Bout Me
TTITLE6=It`s You Or No One
TTITLE7=Lover Man
TTITLE8=What A Difference A Day Made
TTITLE9=The Lord`s Prayer
TTITLE10=Trouble Is A Man
TTITLE11=Motherless Child
TTITLE12=East Of The Sun
TTITLE13=I`m Through With Love
TTITLE14=Gentleman Friend
TTITLE15=I Feel So Smoochie
TTITLE16=Signing Off
EXTD=
EXTT0=
EXTT1=
EXTT2=
EXTT3=
EXTT4=
EXTT5=
EXTT6=
EXTT7=
EXTT8=
EXTT9=
EXTT10=
EXTT11=
EXTT12=
EXTT13=
EXTT14=
EXTT15=
EXTT16=
PLAYORDER=
